PathFileType	4	(X/Y/Z)	Patient4_TMGait_0pt8_01_left_17.trc.trc
DataRate	CameraRate	NumFrames	NumMarkers	Units	OrigDataRate	OrigDataStartFrame	OrigNumFrames
86.419753086420	86.419753086420	4	33	mm	86.419753086420	1	       141
Frame#	Time	Sacral			L.Shoulder			Chest			R.Shoulder			Neck			R.ASIS			L.ASIS			R.Thigh.Superior			R.Thigh.Lateral			R.Thigh.Inferior			R.Patella			L.Thigh.Superior			L.Thigh.Lateral			L.Thigh.Inferior			L.Patella			L.Shank.Superior			L.Shank.Lateral			L.Shank.Inferior			R.Shank.Superior			R.Shank.Lateral			R.Shank.Inferior			R.Heel			R.Midfoot.Superior			R.Midfoot.Lateral			R.Toe			L.Heel			L.Midfoot.Lateral			L.Midfoot.Superior			L.Toe			L.Elbow			L.Wrist			R.Elbow			R.Wrist			
		X1	Y1	Z1	X2	Y2	Z2	X3	Y3	Z3	X4	Y4	Z4	X5	Y5	Z5	X6	Y6	Z6	X7	Y7	Z7	X8	Y8	Z8	X9	Y9	Z9	X10	Y10	Z10	X11	Y11	Z11	X12	Y12	Z12	X13	Y13	Z13	X14	Y14	Z14	X15	Y15	Z15	X16	Y16	Z16	X17	Y17	Z17	X18	Y18	Z18	X19	Y19	Z19	X20	Y20	Z20	X21	Y21	Z21	X22	Y22	Z22	X23	Y23	Z23	X24	Y24	Z24	X25	Y25	Z25	X26	Y26	Z26	X27	Y27	Z27	X28	Y28	Z28	X29	Y29	Z29	X30	Y30	Z30	X31	Y31	Z31	X32	Y32	Z32	X33	Y33	Z33	

1	18.250000000000	921.319731493504	1000.834029326550	491.944656608466	1058.011614051982	1440.927756588528	310.871385196283	1176.051185049988	1375.999109236147	463.417677839636	1099.202819394252	1436.154216762259	645.476149102080	1048.619360011262	1497.167699726025	468.707194622523	1155.323128655762	950.805196481096	598.540807047585	1129.380650083243	966.213649554787	325.032594892903	1194.046466514328	747.127166396953	572.439665819476	1110.445721350949	635.779600357042	628.160236767715	1189.687497614126	584.503955016179	551.094945993883	1187.034360752759	495.105208039378	555.538539317652	1211.251919374793	775.495615576049	343.593282377997	1154.391772595878	647.437484129905	270.838132855062	1265.000377325710	583.837191712078	317.626885191254	1274.192813084367	492.680914727098	309.764832791401	1202.600363191230	427.786353437667	312.552179950333	1053.259812249730	396.236326939310	281.171626002201	1037.620394863548	269.309739835020	340.452474644074	1157.669423831761	406.749054136199	559.516176133099	1082.416220968308	301.767588806317	614.969203978909	1128.620976851787	208.727124952975	551.267175961108	995.907087893748	43.317570998630	510.013794146587	1168.247773734016	99.076678188643	551.914155021038	1078.087425980152	37.020120924205	586.519954678633	1286.105290393160	45.573727315235	579.243099524522	846.958961424865	219.604327920122	401.274818493806	892.306302155252	170.621245442594	315.335147893643	999.888977139844	170.306972716940	325.790696312895	1065.315567264669	53.069784094427	289.153738670983	1056.836152489719	1086.802529632483	193.950624660304	1253.402734624790	912.478040880779	200.692675380472	1131.369714326796	1083.035115448251	759.515665332024	1253.818083927175	852.974142957654	764.961710618098	
2	18.261571428571	920.048223018164	1002.126829092247	493.089374681660	1056.081626467932	1441.498898759754	311.540624674596	1175.071428104507	1376.692562213892	463.327981693841	1099.732223950448	1437.314103727596	645.792356187283	1047.872407723907	1497.885005443022	469.532644136400	1153.957638321345	951.110219151005	598.828075631290	1127.106757312778	967.066263794398	325.558376239912	1189.077334013325	746.486248775219	572.075433526508	1103.843034005087	636.248815914343	628.615414186100	1181.314900927845	583.835111769538	551.235503787524	1177.343269279949	495.029420151999	555.660268605446	1211.473832877448	779.753233904737	344.489268106977	1157.867625887235	650.985706886012	270.688532175056	1269.082565508505	589.385897377499	318.042898478408	1280.661075735952	499.053067573731	310.146564351577	1212.396450599305	431.817250780736	312.597736209635	1065.775573363439	392.357950567293	280.305746888164	1056.907392806882	264.899722545253	339.122892916878	1148.079167694877	406.888502345606	559.677165315607	1072.731837984668	301.999256866247	615.074595962744	1118.932328187962	208.814968201518	551.381531916465	986.009391322741	43.346382297179	509.999843061649	1158.455113462982	99.099035846421	552.108499000207	1068.250972843086	37.039352495862	586.536001628658	1276.286239511082	45.551533975158	579.261310562292	869.861835992294	204.449114295837	398.758977470675	918.140126632070	158.637709340388	312.858567887315	1025.091721317124	164.414126762640	323.833712325806	1096.905239953678	51.740178858647	287.200773079325	1049.188943639656	1086.888465716870	196.840170650386	1227.782157616972	897.970336022719	202.014455594736	1144.287457651805	1086.587911942611	760.178049636498	1278.682870765731	864.450205091073	763.010156365868	
3	18.273142857143	918.785723993707	1003.349882145257	494.192811345431	1054.205414074530	1441.997452311328	312.177897344212	1174.120854818355	1377.308828392353	463.227632483020	1100.257355105335	1438.397919263472	646.083369886296	1047.156212508532	1498.529597225800	470.334246048337	1152.608149235845	951.355948311277	599.102626186808	1124.886962470447	967.851939739614	326.056593041231	1184.161377941962	745.805171836651	571.699582293817	1097.314205637101	636.676199755231	629.048206244080	1173.036469225477	583.140344415538	551.342507607646	1167.769990418566	494.930654594530	555.746239988765	1211.644474791556	783.838980721973	345.403318048133	1161.234666772439	654.390003452705	270.589595811448	1272.968173657180	594.712999713615	318.561924363775	1286.865379466034	505.233232694290	310.585005150532	1221.935103176558	435.721824762181	312.636523230359	1078.111963562595	388.378894506604	279.455777694019	1076.090866205256	260.432000435886	337.725836923654	1138.605742545121	407.006255649289	559.799932473747	1063.193644173518	302.199971758610	615.174992242061	1109.366450397319	208.887253167092	551.464830815812	976.246474009037	43.362364168496	509.989183004162	1148.777022711269	99.114638136074	552.276489514233	1058.534420389055	37.061435940704	586.550484875728	1266.586794489437	45.520225197514	579.284305308768	892.848073058705	189.251657156325	396.209437850898	943.942316208000	146.678284570779	310.310050549164	1050.202942897832	158.518179308678	321.779318496504	1128.321030698331	50.477115971444	285.051739071381	1041.695491052074	1086.913300388432	199.653711255205	1202.319773471492	883.938381020676	203.308699254584	1156.922893199527	1090.100617022753	760.826973454222	1303.135859894022	875.971587709334	761.015871121210	
4	18.284714285714	917.532482263396	1004.429180900253	495.214709629552	1052.444125215939	1442.339300088009	312.736846133238	1173.233451944629	1377.756300529572	463.092329371246	1100.781099763542	1439.321730456250	646.310768031208	1046.507957700494	1499.021738302469	471.068064018193	1151.283552129743	951.476278427573	599.351560211813	1122.756463042939	968.480425478447	326.497603721424	1179.327582064168	745.031250084628	571.312124427160	1090.895668896682	637.018052608893	629.446403410011	1164.895808601241	582.385894518868	551.393550169878	1158.373426093544	494.776365528550	555.770794456547	1211.671546320783	787.547217040194	346.349679292695	1164.331611809105	657.479759781158	270.566870671468	1276.417224163078	599.571159184182	319.269021099686	1292.520954907886	511.034705898045	311.136197373449	1230.979667389380	439.397068984855	312.668935225943	1090.213708458716	384.189693549791	278.607892151588	1095.222913708642	255.909733144296	336.205164935712	1129.292736709807	407.072114168862	559.856506097449	1053.865252241370	302.339886017275	615.274069648095	1099.953330696404	208.924741459285	551.494022477805	966.647164617058	43.353825680515	509.986136432710	1139.225002344949	99.116573375935	552.398494055589	1048.954987624479	37.085182120364	586.561852186716	1257.024182626107	45.474316928071	579.316219849318	916.254977026066	173.996346890389	393.566021446295	969.972955433076	134.815977013428	307.622155047322	1075.364533634173	152.709084293790	319.554374208019	1159.650752836074	49.515367398496	282.606512410600	1034.396685670462	1086.835941061250	202.315392793581	1177.011533148950	870.850058943392	204.565798922819	1169.068830356671	1093.551318507401	761.432640446974	1326.875113388356	887.747622725512	758.891967459083	
